<?xml version="1.0" encoding="UTF-8" standalone="no"?>
<svg
   xmlns:dc="http://purl.org/dc/elements/1.1/"
   xmlns:cc="http://creativecommons.org/ns#"
   xmlns:rdf="http://www.w3.org/1999/02/22-rdf-syntax-ns#"
   xmlns:svg="http://www.w3.org/2000/svg"
   xmlns="http://www.w3.org/2000/svg"
   xmlns:sodipodi="http://sodipodi.sourceforge.net/DTD/sodipodi-0.dtd"
   xmlns:inkscape="http://www.inkscape.org/namespaces/inkscape"
   width="15.127817"
   height="22"
   viewBox="0 0 15.127817 22"
   version="1.1"
   id="svg4494"
   sodipodi:docname="location.svg"
   style="fill:none"
   inkscape:version="0.92.1 r15371">
  <metadata
     id="metadata4498">
    <rdf:RDF>
      <cc:Work
         rdf:about="">
        <dc:format>image/svg+xml</dc:format>
        <dc:type
           rdf:resource="http://purl.org/dc/dcmitype/StillImage" />
        <dc:title></dc:title>
      </cc:Work>
    </rdf:RDF>
  </metadata>
  <sodipodi:namedview
     pagecolor="#ffffff"
     bordercolor="#666666"
     borderopacity="1"
     objecttolerance="10"
     gridtolerance="10"
     guidetolerance="10"
     inkscape:pageopacity="0"
     inkscape:pageshadow="2"
     inkscape:window-width="1024"
     inkscape:window-height="578"
     id="namedview4496"
     showgrid="false"
     inkscape:zoom="17.954545"
     inkscape:cx="7.5639671"
     inkscape:cy="10.712556"
     inkscape:window-x="-8"
     inkscape:window-y="-8"
     inkscape:window-maximized="1"
     inkscape:current-layer="svg4494" />
  <g
     clip-path="url(#clip0)"
     id="g4487"
     transform="translate(-3.4360329)">
    <path
       d="M 17.5131,3.76739 C 16.1779,1.46324 13.8064,0.0555371 11.1692,0.00174023 c -0.1126,-0.002320308 -0.2259,-0.002320308 -0.3385,0 C 8.19351,0.0555371 5.82198,1.46324 4.48677,3.76739 3.12199,6.1226 3.08465,8.95166 4.38687,11.3352 l 5.45544,9.9854 C 9.84476,21.325 9.8472,21.3294 9.84974,21.3338 10.0898,21.751 10.5198,22 11,22 c 0.4802,0 0.9102,-0.2491 1.1502,-0.6662 0.0025,-0.0044 0.005,-0.0088 0.0074,-0.0132 l 5.4555,-9.9854 c 1.3021,-2.38354 1.2648,-5.2126 -0.1,-7.56781 z m -6.5132,6.20138 c -1.70588,0 -3.09372,-1.38785 -3.09372,-3.09375 0,-1.7059 1.38784,-3.09375 3.09372,-3.09375 1.7059,0 3.0938,1.38785 3.0938,3.09375 0,1.7059 -1.3878,3.09375 -3.0938,3.09375 z"
       id="path4485"
       inkscape:connector-curvature="0"
       style="fill:#e1e6e9" />
  </g>
  <defs
     id="defs4492">
    <clipPath
       id="clip0">
      <rect
         width="22"
         height="22"
         id="rect4489"
         x="0"
         y="0"
         style="fill:#ffffff" />
    </clipPath>
  </defs>
</svg>
